<mxfile host="Electron" modified="2025-05-07T10:01:40.282Z" agent="Mozilla/5.0 (Macintosh; Intel Mac OS X 10_15_7) AppleWebKit/537.36 (KHTML, like Gecko) draw.io/24.5.1 Chrome/124.0.6367.207 Electron/30.0.6 Safari/537.36" etag="UfKtvHheDmwDYrZYMq-3" version="24.5.1" type="device">
  <diagram name="Page-1" id="MmhrjdhYWhZFXzagBbGh">
    <mxGraphModel dx="1434" dy="782" grid="1" gridSize="10" guides="1" tooltips="1" connect="1" arrows="1" fold="1" page="1" pageScale="1" pageWidth="827" pageHeight="1169" math="0" shadow="0">
      <root>
        <mxCell id="0" />
        <mxCell id="1" parent="0" />
        <mxCell id="LTmLWwy5IzE7FaQ_AoeO-3" style="edgeStyle=orthogonalEdgeStyle;rounded=0;orthogonalLoop=1;jettySize=auto;html=1;" edge="1" parent="1" source="LTmLWwy5IzE7FaQ_AoeO-1" target="LTmLWwy5IzE7FaQ_AoeO-2">
          <mxGeometry relative="1" as="geometry" />
        </mxCell>
        <mxCell id="LTmLWwy5IzE7FaQ_AoeO-1" value="A" style="whiteSpace=wrap;html=1;aspect=fixed;" vertex="1" parent="1">
          <mxGeometry x="150" y="220" width="130" height="130" as="geometry" />
        </mxCell>
        <mxCell id="LTmLWwy5IzE7FaQ_AoeO-4" style="edgeStyle=orthogonalEdgeStyle;rounded=0;orthogonalLoop=1;jettySize=auto;html=1;entryX=0.5;entryY=0;entryDx=0;entryDy=0;" edge="1" parent="1" source="LTmLWwy5IzE7FaQ_AoeO-2" target="LTmLWwy5IzE7FaQ_AoeO-1">
          <mxGeometry relative="1" as="geometry">
            <Array as="points">
              <mxPoint x="585" y="150" />
              <mxPoint x="215" y="150" />
            </Array>
          </mxGeometry>
        </mxCell>
        <mxCell id="LTmLWwy5IzE7FaQ_AoeO-2" value="B" style="whiteSpace=wrap;html=1;aspect=fixed;" vertex="1" parent="1">
          <mxGeometry x="520" y="220" width="130" height="130" as="geometry" />
        </mxCell>
      </root>
    </mxGraphModel>
  </diagram>
</mxfile>
